<svg xmlns="http://www.w3.org/2000/svg" viewBox="0 0 512 512" width="512" height="512">
	<style>
		tspan { white-space:pre }
		.shp0 { fill: #11c9db } 
		.shp1 { fill: #ffffff } 
	</style>
	<path id="map pin" class="shp0" d="M378.76 54.9C345.04 22.3 304.34 6 256.68 6C209.01 6 168.31 22.3 134.59 54.9C100.86 87.5 84 126.84 84 172.92C84 196.61 87.71 216.07 95.13 231.28L218.23 483.61C221.6 490.78 226.83 496.43 233.91 500.57C240.99 504.69 248.58 506.76 256.68 506.76C264.77 506.76 272.36 504.69 279.44 500.57C286.52 496.43 291.86 490.78 295.46 483.61L418.22 231.28C425.64 216.07 429.35 196.61 429.35 172.92C429.35 126.84 412.49 87.5 378.76 54.9Z" />
	<path id="employment" class="shp1" d="M223.43 78.21L288.57 78.21L288.57 94.41L223.43 94.41L223.43 78.21ZM284.5 175.44L284.5 195.7C284.5 197.89 283.69 199.79 282.08 201.4C280.47 203 278.56 203.8 276.36 203.8L235.64 203.8C233.44 203.8 231.53 203 229.92 201.4C228.31 199.79 227.5 197.89 227.5 195.7L227.5 175.44L142 175.44L142 236.21C142 241.78 143.99 246.55 147.98 250.52C151.97 254.49 156.76 256.47 162.36 256.47L349.64 256.47C355.24 256.47 360.03 254.49 364.02 250.52C368.01 246.55 370 241.78 370 236.21L370 175.44L284.5 175.44ZM239.71 175.44L239.71 191.65L272.29 191.65L272.29 175.44L239.71 175.44ZM364.02 100.36C360.03 96.4 355.24 94.41 349.64 94.41L304.86 94.41L304.86 74.15C304.86 70.78 303.67 67.91 301.29 65.55C298.92 63.18 296.03 62 292.64 62L219.36 62C215.96 62 213.08 63.18 210.71 65.55C208.33 67.91 207.14 70.78 207.14 74.15L207.14 94.41L162.36 94.41C156.76 94.41 151.97 96.4 147.98 100.36C143.99 104.33 142 109.1 142 114.67L142 163.29L370 163.29L370 114.67C370 109.1 368.01 104.33 364.02 100.36Z" />
</svg>