<svg xmlns="http://www.w3.org/2000/svg" viewBox="0 0 512 512" width="512" height="512">
	<style>
		tspan { white-space:pre }
		.shp0 { fill: var(--CYAN) } 
		.shp1 { fill: #ffffff } 
	</style>
	<path id="map pin" class="shp0" d="M378.76 54.9C345.04 22.3 304.34 6 256.68 6C209.01 6 168.31 22.3 134.59 54.9C100.86 87.5 84 126.84 84 172.92C84 196.61 87.71 216.07 95.13 231.28L218.23 483.61C221.6 490.78 226.83 496.43 233.91 500.57C240.99 504.69 248.58 506.76 256.68 506.76C264.77 506.76 272.36 504.69 279.44 500.57C286.52 496.43 291.86 490.78 295.46 483.61L418.22 231.28C425.64 216.07 429.35 196.61 429.35 172.92C429.35 126.84 412.49 87.5 378.76 54.9Z" />
	<path id="food" class="shp1" d="M246.39 85.03C244.86 83.5 243.05 82.74 240.95 82.74C238.86 82.74 237.04 83.5 235.51 85.03C233.98 86.55 233.22 88.36 233.22 90.45L233.22 140.59C233.22 142.68 232.45 144.49 230.92 146.02C229.39 147.54 227.58 148.31 225.48 148.31C223.38 148.31 221.57 147.54 220.04 146.02C218.51 144.49 217.75 142.68 217.75 140.59L217.75 90.45C217.75 88.36 216.98 86.55 215.45 85.03C213.92 83.5 212.1 82.74 210.01 82.74C207.91 82.74 206.1 83.5 204.57 85.03C203.04 86.55 202.28 88.36 202.28 90.45L202.28 140.59C202.28 142.68 201.51 144.49 199.98 146.02C198.45 147.54 196.63 148.31 194.54 148.31C192.44 148.31 190.63 147.54 189.1 146.02C187.57 144.49 186.8 142.68 186.8 140.59L186.8 90.45C186.8 88.36 186.04 86.55 184.51 85.03C182.98 83.5 181.16 82.74 179.07 82.74C176.97 82.74 175.16 83.5 173.63 85.03C172.1 86.55 171.33 88.36 171.33 90.45L171.33 167.59C171.33 172.49 172.76 176.95 175.62 180.97C178.48 184.99 182.21 187.8 186.8 189.41L186.8 283.3C186.8 287.48 188.33 291.1 191.4 294.15C194.46 297.2 198.08 298.73 202.28 298.73L217.75 298.73C221.93 298.73 225.56 297.2 228.62 294.15C231.68 291.1 233.22 287.48 233.22 283.3L233.22 189.41C237.81 187.8 241.54 184.99 244.4 180.97C247.26 176.95 248.69 172.49 248.69 167.59L248.69 90.45C248.69 88.36 247.92 86.55 246.39 85.03ZM339.21 85.03C337.68 83.5 335.87 82.74 333.78 82.74L302.83 82.74C292.2 82.74 283.09 86.51 275.52 94.07C267.94 101.62 264.16 110.7 264.16 121.31L264.16 217.73C264.16 218.78 264.54 219.68 265.31 220.44C266.07 221.21 266.98 221.59 268.03 221.59L295.1 221.59L295.1 283.3C295.1 287.48 296.63 291.1 299.69 294.15C302.75 297.2 306.38 298.73 310.57 298.73L326.04 298.73C330.23 298.73 333.86 297.2 336.92 294.15C339.98 291.1 341.51 287.48 341.51 283.3L341.51 90.45C341.51 88.36 340.74 86.55 339.21 85.03Z" />
</svg>