<svg xmlns="http://www.w3.org/2000/svg" viewBox="0 0 512 512" width="512" height="512">
	<style>
		tspan { white-space:pre }
		.shp0 { fill: #11c9db } 
		.shp1 { fill: #ffffff } 
	</style>
	<path id="Shape 1" class="shp0" d="M378.76 54.9C345.04 22.3 304.34 6 256.68 6C209.01 6 168.31 22.3 134.59 54.9C100.86 87.5 84 126.84 84 172.92C84 196.61 87.71 216.07 95.13 231.28L218.23 483.61C221.6 490.78 226.83 496.43 233.91 500.57C240.99 504.69 248.58 506.76 256.68 506.76C264.77 506.76 272.36 504.69 279.44 500.57C286.52 496.43 291.86 490.78 295.46 483.61L418.22 231.28C425.64 216.07 429.35 196.61 429.35 172.92C429.35 126.84 412.49 87.5 378.76 54.9Z" />
	<path id="Shape 2" class="shp1" d="M181 132.49C181 130.73 180.38 129.21 179.14 127.93C177.91 126.64 176.44 126 174.75 126L162.25 126C160.56 126 159.09 126.64 157.86 127.93C156.62 129.21 156 130.73 156 132.49L156 255.73L181 255.73L181 229.78L331 229.78L331 255.73L356 255.73L356 210.32C356 208.57 355.38 207.05 354.14 205.76C352.91 204.48 351.44 203.84 349.75 203.84L181 203.84L181 132.49ZM212.25 197.35C205.35 197.35 199.46 194.82 194.57 189.75C189.69 184.68 187.25 178.57 187.25 171.41C187.25 164.24 189.69 158.13 194.57 153.06C199.46 147.99 205.35 145.46 212.25 145.46C219.15 145.46 225.04 147.99 229.93 153.06C234.81 158.13 237.25 164.24 237.25 171.41C237.25 178.57 234.81 184.68 229.93 189.75C225.04 194.82 219.15 197.35 212.25 197.35ZM243.5 197.35L243.5 158.43C243.5 156.68 244.12 155.16 245.36 153.87C246.59 152.59 248.06 151.95 249.75 151.95L318.5 151.95C328.85 151.95 337.69 155.75 345.01 163.35C352.34 170.95 356 180.12 356 190.86L356 197.35L243.5 197.35Z" />
</svg>